<mxfile host="app.diagrams.net" modified="2020-12-25T08:23:36.037Z" agent="5.0 (Windows NT 10.0; Win64; x64) AppleWebKit/537.36 (KHTML, like Gecko) Chrome/87.0.4280.88 Safari/537.36" etag="DAo5jkCyFZudNTIqqBs9" version="14.1.2" type="github" pages="4">
  <diagram id="84ad0UrM3Y8stC49jq3Z" name="顶点和边信息">
    <mxGraphModel dx="2249" dy="762" grid="1" gridSize="10" guides="1" tooltips="1" connect="1" arrows="1" fold="1" page="1" pageScale="1" pageWidth="827" pageHeight="1169" math="0" shadow="0">
      <root>
        <mxCell id="0" />
        <mxCell id="1" parent="0" />
        <mxCell id="MI48X-5yPGLEHq9RDz-W-1" value="" style="rounded=0;whiteSpace=wrap;html=1;" vertex="1" parent="1">
          <mxGeometry x="120" y="320" width="160" height="160" as="geometry" />
        </mxCell>
        <mxCell id="MI48X-5yPGLEHq9RDz-W-2" value="(-50,-50)" style="text;html=1;strokeColor=none;fillColor=none;align=center;verticalAlign=middle;whiteSpace=wrap;rounded=0;" vertex="1" parent="1">
          <mxGeometry x="80" y="480" width="40" height="20" as="geometry" />
        </mxCell>
        <mxCell id="MI48X-5yPGLEHq9RDz-W-3" value="(-50,50)" style="text;html=1;strokeColor=none;fillColor=none;align=center;verticalAlign=middle;whiteSpace=wrap;rounded=0;" vertex="1" parent="1">
          <mxGeometry x="70" y="300" width="40" height="20" as="geometry" />
        </mxCell>
        <mxCell id="MI48X-5yPGLEHq9RDz-W-4" value="(50,50)" style="text;html=1;strokeColor=none;fillColor=none;align=center;verticalAlign=middle;whiteSpace=wrap;rounded=0;" vertex="1" parent="1">
          <mxGeometry x="290" y="300" width="40" height="20" as="geometry" />
        </mxCell>
        <mxCell id="MI48X-5yPGLEHq9RDz-W-5" value="(50,-50)" style="text;html=1;strokeColor=none;fillColor=none;align=center;verticalAlign=middle;whiteSpace=wrap;rounded=0;" vertex="1" parent="1">
          <mxGeometry x="290" y="470" width="40" height="20" as="geometry" />
        </mxCell>
        <mxCell id="MI48X-5yPGLEHq9RDz-W-6" value="" style="endArrow=classic;html=1;" edge="1" parent="1">
          <mxGeometry width="50" height="50" relative="1" as="geometry">
            <mxPoint y="400" as="sourcePoint" />
            <mxPoint x="480" y="400" as="targetPoint" />
          </mxGeometry>
        </mxCell>
        <mxCell id="MI48X-5yPGLEHq9RDz-W-7" value="" style="endArrow=classic;html=1;" edge="1" parent="1">
          <mxGeometry width="50" height="50" relative="1" as="geometry">
            <mxPoint x="200" y="570" as="sourcePoint" />
            <mxPoint x="200" y="120" as="targetPoint" />
          </mxGeometry>
        </mxCell>
        <mxCell id="MI48X-5yPGLEHq9RDz-W-8" value="v[0]" style="text;html=1;strokeColor=#82b366;fillColor=#d5e8d4;align=center;verticalAlign=middle;whiteSpace=wrap;rounded=0;" vertex="1" parent="1">
          <mxGeometry x="80" y="500" width="40" height="20" as="geometry" />
        </mxCell>
        <mxCell id="MI48X-5yPGLEHq9RDz-W-9" value="v[1]" style="text;html=1;strokeColor=#82b366;fillColor=#d5e8d4;align=center;verticalAlign=middle;whiteSpace=wrap;rounded=0;" vertex="1" parent="1">
          <mxGeometry x="290" y="500" width="40" height="20" as="geometry" />
        </mxCell>
        <mxCell id="MI48X-5yPGLEHq9RDz-W-10" value="v[3]" style="text;html=1;strokeColor=#82b366;fillColor=#d5e8d4;align=center;verticalAlign=middle;whiteSpace=wrap;rounded=0;" vertex="1" parent="1">
          <mxGeometry x="290" y="320" width="40" height="20" as="geometry" />
        </mxCell>
        <mxCell id="MI48X-5yPGLEHq9RDz-W-11" value="v[2]" style="text;html=1;strokeColor=#82b366;fillColor=#d5e8d4;align=center;verticalAlign=middle;whiteSpace=wrap;rounded=0;" vertex="1" parent="1">
          <mxGeometry x="70" y="320" width="40" height="20" as="geometry" />
        </mxCell>
        <mxCell id="MI48X-5yPGLEHq9RDz-W-12" value="face: [1,3,2,0]" style="text;html=1;align=center;verticalAlign=middle;resizable=0;points=[];autosize=1;fillColor=#d5e8d4;strokeColor=#82b366;" vertex="1" parent="1">
          <mxGeometry x="35" y="580" width="90" height="20" as="geometry" />
        </mxCell>
      </root>
    </mxGraphModel>
  </diagram>
  <diagram id="L7okZC0wjK-dxCwT4Skf" name="plane1">
    <mxGraphModel dx="1422" dy="762" grid="1" gridSize="10" guides="1" tooltips="1" connect="1" arrows="1" fold="1" page="1" pageScale="1" pageWidth="827" pageHeight="1169" math="0" shadow="0">
      <root>
        <mxCell id="thPQp-lAQaxIbY5tAFK5-0" />
        <mxCell id="thPQp-lAQaxIbY5tAFK5-1" parent="thPQp-lAQaxIbY5tAFK5-0" />
        <mxCell id="thPQp-lAQaxIbY5tAFK5-2" value="v[0]" style="text;html=1;strokeColor=#d6b656;fillColor=#fff2cc;align=center;verticalAlign=middle;whiteSpace=wrap;rounded=0;" vertex="1" parent="thPQp-lAQaxIbY5tAFK5-1">
          <mxGeometry x="200" y="310" width="40" height="20" as="geometry" />
        </mxCell>
        <mxCell id="thPQp-lAQaxIbY5tAFK5-3" value="v[1]" style="text;html=1;strokeColor=#d6b656;fillColor=#fff2cc;align=center;verticalAlign=middle;whiteSpace=wrap;rounded=0;" vertex="1" parent="thPQp-lAQaxIbY5tAFK5-1">
          <mxGeometry x="420" y="310" width="40" height="20" as="geometry" />
        </mxCell>
        <mxCell id="thPQp-lAQaxIbY5tAFK5-4" value="v[3]" style="text;html=1;strokeColor=#d6b656;fillColor=#fff2cc;align=center;verticalAlign=middle;whiteSpace=wrap;rounded=0;" vertex="1" parent="thPQp-lAQaxIbY5tAFK5-1">
          <mxGeometry x="414" y="130" width="40" height="20" as="geometry" />
        </mxCell>
        <mxCell id="thPQp-lAQaxIbY5tAFK5-5" value="v[2]" style="text;html=1;strokeColor=#d6b656;fillColor=#fff2cc;align=center;verticalAlign=middle;whiteSpace=wrap;rounded=0;" vertex="1" parent="thPQp-lAQaxIbY5tAFK5-1">
          <mxGeometry x="200" y="130" width="40" height="20" as="geometry" />
        </mxCell>
        <mxCell id="thPQp-lAQaxIbY5tAFK5-6" value="" style="endArrow=classic;html=1;fillColor=#f8cecc;strokeColor=#b85450;exitX=1;exitY=0.25;exitDx=0;exitDy=0;entryX=0;entryY=0.25;entryDx=0;entryDy=0;" edge="1" parent="thPQp-lAQaxIbY5tAFK5-1" source="thPQp-lAQaxIbY5tAFK5-2" target="thPQp-lAQaxIbY5tAFK5-3">
          <mxGeometry width="50" height="50" relative="1" as="geometry">
            <mxPoint x="390" y="250" as="sourcePoint" />
            <mxPoint x="440" y="200" as="targetPoint" />
          </mxGeometry>
        </mxCell>
        <mxCell id="thPQp-lAQaxIbY5tAFK5-7" value="" style="endArrow=classic;html=1;fillColor=#f8cecc;strokeColor=#b85450;entryX=0.25;entryY=1;entryDx=0;entryDy=0;" edge="1" parent="thPQp-lAQaxIbY5tAFK5-1">
          <mxGeometry width="50" height="50" relative="1" as="geometry">
            <mxPoint x="420" y="310" as="sourcePoint" />
            <mxPoint x="420" y="150" as="targetPoint" />
          </mxGeometry>
        </mxCell>
        <mxCell id="thPQp-lAQaxIbY5tAFK5-8" value="" style="endArrow=classic;html=1;fillColor=#f8cecc;strokeColor=#b85450;exitX=0;exitY=0.75;exitDx=0;exitDy=0;entryX=1;entryY=0.75;entryDx=0;entryDy=0;" edge="1" parent="thPQp-lAQaxIbY5tAFK5-1" source="thPQp-lAQaxIbY5tAFK5-4" target="thPQp-lAQaxIbY5tAFK5-5">
          <mxGeometry width="50" height="50" relative="1" as="geometry">
            <mxPoint x="260" y="335" as="sourcePoint" />
            <mxPoint x="440" y="335" as="targetPoint" />
          </mxGeometry>
        </mxCell>
        <mxCell id="thPQp-lAQaxIbY5tAFK5-9" value="" style="endArrow=classic;html=1;fillColor=#f8cecc;strokeColor=#b85450;exitX=0.75;exitY=1;exitDx=0;exitDy=0;entryX=0.75;entryY=0;entryDx=0;entryDy=0;" edge="1" parent="thPQp-lAQaxIbY5tAFK5-1" source="thPQp-lAQaxIbY5tAFK5-5" target="thPQp-lAQaxIbY5tAFK5-2">
          <mxGeometry width="50" height="50" relative="1" as="geometry">
            <mxPoint x="270" y="345" as="sourcePoint" />
            <mxPoint x="450" y="345" as="targetPoint" />
          </mxGeometry>
        </mxCell>
        <mxCell id="thPQp-lAQaxIbY5tAFK5-10" value="e[5]" style="text;html=1;align=center;verticalAlign=middle;resizable=0;points=[];autosize=1;fillColor=#f8cecc;strokeColor=#b85450;" vertex="1" parent="thPQp-lAQaxIbY5tAFK5-1">
          <mxGeometry x="300" y="290" width="40" height="20" as="geometry" />
        </mxCell>
        <mxCell id="thPQp-lAQaxIbY5tAFK5-11" value="e[6]" style="text;html=1;align=center;verticalAlign=middle;resizable=0;points=[];autosize=1;fillColor=#f8cecc;strokeColor=#b85450;" vertex="1" parent="thPQp-lAQaxIbY5tAFK5-1">
          <mxGeometry x="374" y="230" width="40" height="20" as="geometry" />
        </mxCell>
        <mxCell id="thPQp-lAQaxIbY5tAFK5-12" value="e[0]" style="text;html=1;align=center;verticalAlign=middle;resizable=0;points=[];autosize=1;fillColor=#f8cecc;strokeColor=#b85450;" vertex="1" parent="thPQp-lAQaxIbY5tAFK5-1">
          <mxGeometry x="300" y="150" width="40" height="20" as="geometry" />
        </mxCell>
        <mxCell id="thPQp-lAQaxIbY5tAFK5-13" value="e[3]" style="text;html=1;align=center;verticalAlign=middle;resizable=0;points=[];autosize=1;fillColor=#f8cecc;strokeColor=#b85450;" vertex="1" parent="thPQp-lAQaxIbY5tAFK5-1">
          <mxGeometry x="240" y="220" width="40" height="20" as="geometry" />
        </mxCell>
        <mxCell id="thPQp-lAQaxIbY5tAFK5-14" value="" style="endArrow=classic;html=1;fillColor=#d5e8d4;strokeColor=#82b366;exitX=1;exitY=0.25;exitDx=0;exitDy=0;entryX=0;entryY=0.25;entryDx=0;entryDy=0;" edge="1" parent="thPQp-lAQaxIbY5tAFK5-1" source="thPQp-lAQaxIbY5tAFK5-5" target="thPQp-lAQaxIbY5tAFK5-4">
          <mxGeometry width="50" height="50" relative="1" as="geometry">
            <mxPoint x="380" y="250" as="sourcePoint" />
            <mxPoint x="430" y="200" as="targetPoint" />
          </mxGeometry>
        </mxCell>
        <mxCell id="thPQp-lAQaxIbY5tAFK5-15" value="" style="endArrow=classic;html=1;fillColor=#d5e8d4;strokeColor=#82b366;entryX=0.75;entryY=0;entryDx=0;entryDy=0;" edge="1" parent="thPQp-lAQaxIbY5tAFK5-1" target="thPQp-lAQaxIbY5tAFK5-3">
          <mxGeometry width="50" height="50" relative="1" as="geometry">
            <mxPoint x="450" y="150" as="sourcePoint" />
            <mxPoint x="628" y="170" as="targetPoint" />
          </mxGeometry>
        </mxCell>
        <mxCell id="thPQp-lAQaxIbY5tAFK5-16" value="" style="endArrow=classic;html=1;fillColor=#d5e8d4;strokeColor=#82b366;exitX=0;exitY=0.75;exitDx=0;exitDy=0;entryX=1;entryY=0.75;entryDx=0;entryDy=0;" edge="1" parent="thPQp-lAQaxIbY5tAFK5-1" source="thPQp-lAQaxIbY5tAFK5-3" target="thPQp-lAQaxIbY5tAFK5-2">
          <mxGeometry width="50" height="50" relative="1" as="geometry">
            <mxPoint x="480" y="200" as="sourcePoint" />
            <mxPoint x="654" y="200" as="targetPoint" />
          </mxGeometry>
        </mxCell>
        <mxCell id="thPQp-lAQaxIbY5tAFK5-17" value="" style="endArrow=classic;html=1;fillColor=#d5e8d4;strokeColor=#82b366;exitX=0.25;exitY=0;exitDx=0;exitDy=0;entryX=0.25;entryY=1;entryDx=0;entryDy=0;" edge="1" parent="thPQp-lAQaxIbY5tAFK5-1" source="thPQp-lAQaxIbY5tAFK5-2" target="thPQp-lAQaxIbY5tAFK5-5">
          <mxGeometry width="50" height="50" relative="1" as="geometry">
            <mxPoint x="270" y="370" as="sourcePoint" />
            <mxPoint x="444" y="370" as="targetPoint" />
          </mxGeometry>
        </mxCell>
        <mxCell id="thPQp-lAQaxIbY5tAFK5-18" value="e[4]" style="text;html=1;align=center;verticalAlign=middle;resizable=0;points=[];autosize=1;fillColor=#d5e8d4;strokeColor=#82b366;" vertex="1" parent="thPQp-lAQaxIbY5tAFK5-1">
          <mxGeometry x="290" y="110" width="40" height="20" as="geometry" />
        </mxCell>
        <mxCell id="thPQp-lAQaxIbY5tAFK5-19" value="e[7]" style="text;html=1;align=center;verticalAlign=middle;resizable=0;points=[];autosize=1;fillColor=#d5e8d4;strokeColor=#82b366;" vertex="1" parent="thPQp-lAQaxIbY5tAFK5-1">
          <mxGeometry x="160" y="220" width="40" height="20" as="geometry" />
        </mxCell>
        <mxCell id="thPQp-lAQaxIbY5tAFK5-20" value="e[1]" style="text;html=1;align=center;verticalAlign=middle;resizable=0;points=[];autosize=1;fillColor=#d5e8d4;strokeColor=#82b366;" vertex="1" parent="thPQp-lAQaxIbY5tAFK5-1">
          <mxGeometry x="300" y="340" width="40" height="20" as="geometry" />
        </mxCell>
        <mxCell id="thPQp-lAQaxIbY5tAFK5-21" value="e[2]" style="text;html=1;align=center;verticalAlign=middle;resizable=0;points=[];autosize=1;fillColor=#d5e8d4;strokeColor=#82b366;" vertex="1" parent="thPQp-lAQaxIbY5tAFK5-1">
          <mxGeometry x="460" y="230" width="40" height="20" as="geometry" />
        </mxCell>
      </root>
    </mxGraphModel>
  </diagram>
  <diagram id="EAOYogiF8yDz_2Yn9vnP" name="plane2">
    <mxGraphModel dx="981" dy="526" grid="1" gridSize="10" guides="1" tooltips="1" connect="1" arrows="1" fold="1" page="1" pageScale="1" pageWidth="827" pageHeight="1169" math="0" shadow="0">
      <root>
        <mxCell id="UaaEmltvYozua2VeJ-wg-0" />
        <mxCell id="UaaEmltvYozua2VeJ-wg-1" parent="UaaEmltvYozua2VeJ-wg-0" />
        <mxCell id="LM7cQKBd4AS_RPq5NWen-0" value="" style="rounded=0;whiteSpace=wrap;html=1;" vertex="1" parent="UaaEmltvYozua2VeJ-wg-1">
          <mxGeometry x="190" y="280" width="160" height="160" as="geometry" />
        </mxCell>
        <mxCell id="LM7cQKBd4AS_RPq5NWen-1" value="(-5,-5)" style="text;html=1;strokeColor=none;fillColor=none;align=center;verticalAlign=middle;whiteSpace=wrap;rounded=0;" vertex="1" parent="UaaEmltvYozua2VeJ-wg-1">
          <mxGeometry x="140" y="440" width="40" height="20" as="geometry" />
        </mxCell>
        <mxCell id="LM7cQKBd4AS_RPq5NWen-2" value="(-5,5)" style="text;html=1;strokeColor=none;fillColor=none;align=center;verticalAlign=middle;whiteSpace=wrap;rounded=0;" vertex="1" parent="UaaEmltvYozua2VeJ-wg-1">
          <mxGeometry x="140" y="230" width="40" height="20" as="geometry" />
        </mxCell>
        <mxCell id="LM7cQKBd4AS_RPq5NWen-3" value="(5,5)" style="text;html=1;strokeColor=none;fillColor=none;align=center;verticalAlign=middle;whiteSpace=wrap;rounded=0;" vertex="1" parent="UaaEmltvYozua2VeJ-wg-1">
          <mxGeometry x="360" y="230" width="40" height="20" as="geometry" />
        </mxCell>
        <mxCell id="LM7cQKBd4AS_RPq5NWen-4" value="(5,-5)" style="text;html=1;strokeColor=none;fillColor=none;align=center;verticalAlign=middle;whiteSpace=wrap;rounded=0;" vertex="1" parent="UaaEmltvYozua2VeJ-wg-1">
          <mxGeometry x="360" y="440" width="40" height="20" as="geometry" />
        </mxCell>
        <mxCell id="LM7cQKBd4AS_RPq5NWen-5" value="" style="endArrow=classic;html=1;" edge="1" parent="UaaEmltvYozua2VeJ-wg-1">
          <mxGeometry width="50" height="50" relative="1" as="geometry">
            <mxPoint x="70" y="360" as="sourcePoint" />
            <mxPoint x="550" y="360" as="targetPoint" />
          </mxGeometry>
        </mxCell>
        <mxCell id="LM7cQKBd4AS_RPq5NWen-6" value="" style="endArrow=classic;html=1;" edge="1" parent="UaaEmltvYozua2VeJ-wg-1">
          <mxGeometry width="50" height="50" relative="1" as="geometry">
            <mxPoint x="270" y="530" as="sourcePoint" />
            <mxPoint x="270" y="80" as="targetPoint" />
          </mxGeometry>
        </mxCell>
        <mxCell id="LM7cQKBd4AS_RPq5NWen-7" value="v[0]" style="text;html=1;strokeColor=#82b366;fillColor=#d5e8d4;align=center;verticalAlign=middle;whiteSpace=wrap;rounded=0;" vertex="1" parent="UaaEmltvYozua2VeJ-wg-1">
          <mxGeometry x="140" y="460" width="40" height="20" as="geometry" />
        </mxCell>
        <mxCell id="LM7cQKBd4AS_RPq5NWen-8" value="v[2]" style="text;html=1;strokeColor=#82b366;fillColor=#d5e8d4;align=center;verticalAlign=middle;whiteSpace=wrap;rounded=0;" vertex="1" parent="UaaEmltvYozua2VeJ-wg-1">
          <mxGeometry x="360" y="460" width="40" height="20" as="geometry" />
        </mxCell>
        <mxCell id="LM7cQKBd4AS_RPq5NWen-9" value="v[8]" style="text;html=1;strokeColor=#82b366;fillColor=#d5e8d4;align=center;verticalAlign=middle;whiteSpace=wrap;rounded=0;" vertex="1" parent="UaaEmltvYozua2VeJ-wg-1">
          <mxGeometry x="360" y="250" width="40" height="20" as="geometry" />
        </mxCell>
        <mxCell id="LM7cQKBd4AS_RPq5NWen-10" value="v[6]" style="text;html=1;strokeColor=#82b366;fillColor=#d5e8d4;align=center;verticalAlign=middle;whiteSpace=wrap;rounded=0;" vertex="1" parent="UaaEmltvYozua2VeJ-wg-1">
          <mxGeometry x="140" y="250" width="40" height="20" as="geometry" />
        </mxCell>
        <mxCell id="LM7cQKBd4AS_RPq5NWen-11" value="&lt;div&gt;face: [1,4,3,0]&lt;/div&gt;&lt;div&gt;face: [2,5,4,1]&lt;/div&gt;&lt;div&gt;face: [4,7,6,3]&lt;/div&gt;&lt;div&gt;face: [5,8,7,4]&lt;/div&gt;&lt;div&gt;&lt;br&gt;&lt;/div&gt;" style="text;html=1;align=center;verticalAlign=middle;resizable=0;points=[];autosize=1;fillColor=#d5e8d4;strokeColor=#82b366;" vertex="1" parent="UaaEmltvYozua2VeJ-wg-1">
          <mxGeometry x="105" y="510" width="90" height="80" as="geometry" />
        </mxCell>
        <mxCell id="LM7cQKBd4AS_RPq5NWen-12" value="(0,-5)" style="text;html=1;strokeColor=none;fillColor=none;align=center;verticalAlign=middle;whiteSpace=wrap;rounded=0;" vertex="1" parent="UaaEmltvYozua2VeJ-wg-1">
          <mxGeometry x="250" y="440" width="40" height="20" as="geometry" />
        </mxCell>
        <mxCell id="LM7cQKBd4AS_RPq5NWen-13" value="v[1]" style="text;html=1;strokeColor=#82b366;fillColor=#d5e8d4;align=center;verticalAlign=middle;whiteSpace=wrap;rounded=0;" vertex="1" parent="UaaEmltvYozua2VeJ-wg-1">
          <mxGeometry x="250" y="460" width="40" height="20" as="geometry" />
        </mxCell>
        <mxCell id="LM7cQKBd4AS_RPq5NWen-14" value="(-5,0)" style="text;html=1;strokeColor=none;fillColor=none;align=center;verticalAlign=middle;whiteSpace=wrap;rounded=0;" vertex="1" parent="UaaEmltvYozua2VeJ-wg-1">
          <mxGeometry x="140" y="350" width="40" height="20" as="geometry" />
        </mxCell>
        <mxCell id="LM7cQKBd4AS_RPq5NWen-15" value="v[3]" style="text;html=1;strokeColor=#82b366;fillColor=#d5e8d4;align=center;verticalAlign=middle;whiteSpace=wrap;rounded=0;" vertex="1" parent="UaaEmltvYozua2VeJ-wg-1">
          <mxGeometry x="140" y="370" width="40" height="20" as="geometry" />
        </mxCell>
        <mxCell id="LM7cQKBd4AS_RPq5NWen-16" value="(0,0)" style="text;html=1;strokeColor=none;fillColor=none;align=center;verticalAlign=middle;whiteSpace=wrap;rounded=0;" vertex="1" parent="UaaEmltvYozua2VeJ-wg-1">
          <mxGeometry x="250" y="350" width="40" height="20" as="geometry" />
        </mxCell>
        <mxCell id="LM7cQKBd4AS_RPq5NWen-17" value="v[4]" style="text;html=1;strokeColor=#82b366;fillColor=#d5e8d4;align=center;verticalAlign=middle;whiteSpace=wrap;rounded=0;" vertex="1" parent="UaaEmltvYozua2VeJ-wg-1">
          <mxGeometry x="250" y="370" width="40" height="20" as="geometry" />
        </mxCell>
        <mxCell id="LM7cQKBd4AS_RPq5NWen-18" value="(5,0)" style="text;html=1;strokeColor=none;fillColor=none;align=center;verticalAlign=middle;whiteSpace=wrap;rounded=0;" vertex="1" parent="UaaEmltvYozua2VeJ-wg-1">
          <mxGeometry x="360" y="350" width="40" height="20" as="geometry" />
        </mxCell>
        <mxCell id="LM7cQKBd4AS_RPq5NWen-19" value="v[5]" style="text;html=1;strokeColor=#82b366;fillColor=#d5e8d4;align=center;verticalAlign=middle;whiteSpace=wrap;rounded=0;" vertex="1" parent="UaaEmltvYozua2VeJ-wg-1">
          <mxGeometry x="360" y="370" width="40" height="20" as="geometry" />
        </mxCell>
        <mxCell id="LM7cQKBd4AS_RPq5NWen-20" value="(0,5)" style="text;html=1;strokeColor=none;fillColor=none;align=center;verticalAlign=middle;whiteSpace=wrap;rounded=0;" vertex="1" parent="UaaEmltvYozua2VeJ-wg-1">
          <mxGeometry x="250" y="230" width="40" height="20" as="geometry" />
        </mxCell>
        <mxCell id="LM7cQKBd4AS_RPq5NWen-21" value="v[7]" style="text;html=1;strokeColor=#82b366;fillColor=#d5e8d4;align=center;verticalAlign=middle;whiteSpace=wrap;rounded=0;" vertex="1" parent="UaaEmltvYozua2VeJ-wg-1">
          <mxGeometry x="250" y="250" width="40" height="20" as="geometry" />
        </mxCell>
      </root>
    </mxGraphModel>
  </diagram>
  <diagram id="7lJrgNLnFy0p5gAPiH-y" name="plane2*2">
    <mxGraphModel dx="813" dy="435" grid="1" gridSize="10" guides="1" tooltips="1" connect="1" arrows="1" fold="1" page="1" pageScale="1" pageWidth="827" pageHeight="1169" math="0" shadow="0">
      <root>
        <mxCell id="2iKNml_L3nzeAcv7N0c_-0" />
        <mxCell id="2iKNml_L3nzeAcv7N0c_-1" parent="2iKNml_L3nzeAcv7N0c_-0" />
        <mxCell id="2iKNml_L3nzeAcv7N0c_-9" value="v[0]" style="text;html=1;strokeColor=#d6b656;fillColor=#fff2cc;align=center;verticalAlign=middle;whiteSpace=wrap;rounded=0;" vertex="1" parent="2iKNml_L3nzeAcv7N0c_-1">
          <mxGeometry x="140" y="480" width="40" height="20" as="geometry" />
        </mxCell>
        <mxCell id="2iKNml_L3nzeAcv7N0c_-10" value="v[2]" style="text;html=1;strokeColor=#d6b656;fillColor=#fff2cc;align=center;verticalAlign=middle;whiteSpace=wrap;rounded=0;" vertex="1" parent="2iKNml_L3nzeAcv7N0c_-1">
          <mxGeometry x="459" y="482" width="40" height="20" as="geometry" />
        </mxCell>
        <mxCell id="2iKNml_L3nzeAcv7N0c_-11" value="v[8]" style="text;html=1;strokeColor=#d6b656;fillColor=#fff2cc;align=center;verticalAlign=middle;whiteSpace=wrap;rounded=0;" vertex="1" parent="2iKNml_L3nzeAcv7N0c_-1">
          <mxGeometry x="459" y="259" width="40" height="20" as="geometry" />
        </mxCell>
        <mxCell id="2iKNml_L3nzeAcv7N0c_-12" value="v[6]" style="text;html=1;strokeColor=#d6b656;fillColor=#fff2cc;align=center;verticalAlign=middle;whiteSpace=wrap;rounded=0;" vertex="1" parent="2iKNml_L3nzeAcv7N0c_-1">
          <mxGeometry x="140" y="259" width="40" height="20" as="geometry" />
        </mxCell>
        <mxCell id="2iKNml_L3nzeAcv7N0c_-13" value="&lt;div&gt;face: [1,4,3,0]&lt;/div&gt;&lt;div&gt;face: [2,5,4,1]&lt;/div&gt;&lt;div&gt;face: [4,7,6,3]&lt;/div&gt;&lt;div&gt;face: [5,8,7,4]&lt;/div&gt;&lt;div&gt;&lt;br&gt;&lt;/div&gt;" style="text;html=1;align=center;verticalAlign=middle;resizable=0;points=[];autosize=1;fillColor=#d5e8d4;strokeColor=#82b366;" vertex="1" parent="2iKNml_L3nzeAcv7N0c_-1">
          <mxGeometry x="40" y="50" width="90" height="80" as="geometry" />
        </mxCell>
        <mxCell id="2iKNml_L3nzeAcv7N0c_-15" value="v[1]" style="text;html=1;strokeColor=#d6b656;fillColor=#fff2cc;align=center;verticalAlign=middle;whiteSpace=wrap;rounded=0;" vertex="1" parent="2iKNml_L3nzeAcv7N0c_-1">
          <mxGeometry x="300" y="480" width="40" height="20" as="geometry" />
        </mxCell>
        <mxCell id="2iKNml_L3nzeAcv7N0c_-17" value="v[3]" style="text;html=1;strokeColor=#d6b656;fillColor=#fff2cc;align=center;verticalAlign=middle;whiteSpace=wrap;rounded=0;" vertex="1" parent="2iKNml_L3nzeAcv7N0c_-1">
          <mxGeometry x="140" y="370" width="40" height="20" as="geometry" />
        </mxCell>
        <mxCell id="2iKNml_L3nzeAcv7N0c_-19" value="v[4]" style="text;html=1;strokeColor=#d6b656;fillColor=#fff2cc;align=center;verticalAlign=middle;whiteSpace=wrap;rounded=0;" vertex="1" parent="2iKNml_L3nzeAcv7N0c_-1">
          <mxGeometry x="300" y="370" width="40" height="20" as="geometry" />
        </mxCell>
        <mxCell id="2iKNml_L3nzeAcv7N0c_-21" value="v[5]" style="text;html=1;strokeColor=#d6b656;fillColor=#fff2cc;align=center;verticalAlign=middle;whiteSpace=wrap;rounded=0;" vertex="1" parent="2iKNml_L3nzeAcv7N0c_-1">
          <mxGeometry x="459" y="370" width="40" height="20" as="geometry" />
        </mxCell>
        <mxCell id="2iKNml_L3nzeAcv7N0c_-23" value="v[7]" style="text;html=1;strokeColor=#d6b656;fillColor=#fff2cc;align=center;verticalAlign=middle;whiteSpace=wrap;rounded=0;" vertex="1" parent="2iKNml_L3nzeAcv7N0c_-1">
          <mxGeometry x="300" y="259" width="40" height="20" as="geometry" />
        </mxCell>
        <mxCell id="HzZOGFQR_SEdcYpYgEeQ-0" value="" style="endArrow=classic;html=1;fillColor=#d5e8d4;strokeColor=#82b366;entryX=1;entryY=0.25;entryDx=0;entryDy=0;exitX=0;exitY=0.25;exitDx=0;exitDy=0;" edge="1" parent="2iKNml_L3nzeAcv7N0c_-1">
          <mxGeometry width="50" height="50" relative="1" as="geometry">
            <mxPoint x="300" y="384" as="sourcePoint" />
            <mxPoint x="180" y="384" as="targetPoint" />
          </mxGeometry>
        </mxCell>
        <mxCell id="HzZOGFQR_SEdcYpYgEeQ-1" value="e[0]" style="text;html=1;align=center;verticalAlign=middle;resizable=0;points=[];autosize=1;fillColor=#d5e8d4;strokeColor=#82b366;" vertex="1" parent="2iKNml_L3nzeAcv7N0c_-1">
          <mxGeometry x="220" y="389" width="40" height="20" as="geometry" />
        </mxCell>
        <mxCell id="ZxGLjuITJ4ZJ01TFVfL6-0" value="" style="endArrow=classic;html=1;fillColor=#d5e8d4;strokeColor=#82b366;exitX=1;exitY=0.25;exitDx=0;exitDy=0;entryX=0;entryY=0.25;entryDx=0;entryDy=0;" edge="1" parent="2iKNml_L3nzeAcv7N0c_-1" target="2iKNml_L3nzeAcv7N0c_-10">
          <mxGeometry width="50" height="50" relative="1" as="geometry">
            <mxPoint x="340" y="487.5" as="sourcePoint" />
            <mxPoint x="450" y="485" as="targetPoint" />
          </mxGeometry>
        </mxCell>
        <mxCell id="ZxGLjuITJ4ZJ01TFVfL6-1" value="e[26]" style="text;html=1;align=center;verticalAlign=middle;resizable=0;points=[];autosize=1;fillColor=#d5e8d4;strokeColor=#82b366;" vertex="1" parent="2iKNml_L3nzeAcv7N0c_-1">
          <mxGeometry x="374" y="460" width="40" height="20" as="geometry" />
        </mxCell>
        <mxCell id="ZxGLjuITJ4ZJ01TFVfL6-2" value="" style="endArrow=classic;html=1;fillColor=#d5e8d4;strokeColor=#82b366;entryX=0.75;entryY=1;entryDx=0;entryDy=0;exitX=0.75;exitY=1;exitDx=0;exitDy=0;" edge="1" parent="2iKNml_L3nzeAcv7N0c_-1" source="2iKNml_L3nzeAcv7N0c_-17">
          <mxGeometry width="50" height="50" relative="1" as="geometry">
            <mxPoint x="260" y="385" as="sourcePoint" />
            <mxPoint x="170" y="480" as="targetPoint" />
          </mxGeometry>
        </mxCell>
        <mxCell id="ZxGLjuITJ4ZJ01TFVfL6-3" value="e[24]" style="text;html=1;align=center;verticalAlign=middle;resizable=0;points=[];autosize=1;fillColor=#d5e8d4;strokeColor=#82b366;" vertex="1" parent="2iKNml_L3nzeAcv7N0c_-1">
          <mxGeometry x="180" y="420" width="40" height="20" as="geometry" />
        </mxCell>
        <mxCell id="ZxGLjuITJ4ZJ01TFVfL6-5" value="" style="endArrow=classic;html=1;fillColor=#d5e8d4;strokeColor=#82b366;entryX=0;entryY=0.25;entryDx=0;entryDy=0;exitX=1;exitY=0.25;exitDx=0;exitDy=0;" edge="1" parent="2iKNml_L3nzeAcv7N0c_-1" source="2iKNml_L3nzeAcv7N0c_-9" target="2iKNml_L3nzeAcv7N0c_-15">
          <mxGeometry width="50" height="50" relative="1" as="geometry">
            <mxPoint x="310" y="385" as="sourcePoint" />
            <mxPoint x="190" y="385" as="targetPoint" />
          </mxGeometry>
        </mxCell>
        <mxCell id="ZxGLjuITJ4ZJ01TFVfL6-6" value="e[5]" style="text;html=1;align=center;verticalAlign=middle;resizable=0;points=[];autosize=1;fillColor=#d5e8d4;strokeColor=#82b366;" vertex="1" parent="2iKNml_L3nzeAcv7N0c_-1">
          <mxGeometry x="220" y="460" width="40" height="20" as="geometry" />
        </mxCell>
        <mxCell id="ZxGLjuITJ4ZJ01TFVfL6-7" value="e[6]" style="text;html=1;align=center;verticalAlign=middle;resizable=0;points=[];autosize=1;fillColor=#d5e8d4;strokeColor=#82b366;" vertex="1" parent="2iKNml_L3nzeAcv7N0c_-1">
          <mxGeometry x="260" y="420" width="40" height="20" as="geometry" />
        </mxCell>
        <mxCell id="ZxGLjuITJ4ZJ01TFVfL6-8" value="" style="endArrow=classic;html=1;fillColor=#d5e8d4;strokeColor=#82b366;exitX=0.25;exitY=0;exitDx=0;exitDy=0;entryX=0.25;entryY=1;entryDx=0;entryDy=0;" edge="1" parent="2iKNml_L3nzeAcv7N0c_-1" source="2iKNml_L3nzeAcv7N0c_-15" target="2iKNml_L3nzeAcv7N0c_-19">
          <mxGeometry width="50" height="50" relative="1" as="geometry">
            <mxPoint x="350" y="497.5" as="sourcePoint" />
            <mxPoint x="420" y="497.5" as="targetPoint" />
          </mxGeometry>
        </mxCell>
        <mxCell id="ZxGLjuITJ4ZJ01TFVfL6-9" value="" style="endArrow=classic;html=1;fillColor=#d5e8d4;strokeColor=#82b366;entryX=1;entryY=0.25;entryDx=0;entryDy=0;" edge="1" parent="2iKNml_L3nzeAcv7N0c_-1">
          <mxGeometry width="50" height="50" relative="1" as="geometry">
            <mxPoint x="459" y="384" as="sourcePoint" />
            <mxPoint x="340" y="384" as="targetPoint" />
          </mxGeometry>
        </mxCell>
        <mxCell id="ZxGLjuITJ4ZJ01TFVfL6-10" value="e[4]" style="text;html=1;align=center;verticalAlign=middle;resizable=0;points=[];autosize=1;fillColor=#d5e8d4;strokeColor=#82b366;" vertex="1" parent="2iKNml_L3nzeAcv7N0c_-1">
          <mxGeometry x="374" y="391" width="40" height="20" as="geometry" />
        </mxCell>
        <mxCell id="ZxGLjuITJ4ZJ01TFVfL6-11" value="" style="endArrow=classic;html=1;fillColor=#d5e8d4;strokeColor=#82b366;exitX=0.75;exitY=1;exitDx=0;exitDy=0;entryX=0.75;entryY=0;entryDx=0;entryDy=0;" edge="1" parent="2iKNml_L3nzeAcv7N0c_-1" source="2iKNml_L3nzeAcv7N0c_-19" target="2iKNml_L3nzeAcv7N0c_-15">
          <mxGeometry width="50" height="50" relative="1" as="geometry">
            <mxPoint x="460" y="385" as="sourcePoint" />
            <mxPoint x="350" y="385" as="targetPoint" />
          </mxGeometry>
        </mxCell>
        <mxCell id="ZxGLjuITJ4ZJ01TFVfL6-12" value="e[11]" style="text;html=1;align=center;verticalAlign=middle;resizable=0;points=[];autosize=1;fillColor=#d5e8d4;strokeColor=#82b366;" vertex="1" parent="2iKNml_L3nzeAcv7N0c_-1">
          <mxGeometry x="340" y="420" width="40" height="20" as="geometry" />
        </mxCell>
        <mxCell id="ZxGLjuITJ4ZJ01TFVfL6-13" value="" style="endArrow=classic;html=1;fillColor=#d5e8d4;strokeColor=#82b366;exitX=0.25;exitY=0;exitDx=0;exitDy=0;entryX=0.25;entryY=1;entryDx=0;entryDy=0;" edge="1" parent="2iKNml_L3nzeAcv7N0c_-1">
          <mxGeometry width="50" height="50" relative="1" as="geometry">
            <mxPoint x="469" y="480" as="sourcePoint" />
            <mxPoint x="469" y="390" as="targetPoint" />
          </mxGeometry>
        </mxCell>
        <mxCell id="ZxGLjuITJ4ZJ01TFVfL6-14" value="e[12]" style="text;html=1;align=center;verticalAlign=middle;resizable=0;points=[];autosize=1;fillColor=#d5e8d4;strokeColor=#82b366;" vertex="1" parent="2iKNml_L3nzeAcv7N0c_-1">
          <mxGeometry x="420" y="420" width="40" height="20" as="geometry" />
        </mxCell>
        <mxCell id="ZxGLjuITJ4ZJ01TFVfL6-15" value="" style="endArrow=classic;html=1;fillColor=#d5e8d4;strokeColor=#82b366;entryX=0;entryY=0.25;entryDx=0;entryDy=0;exitX=1;exitY=0.25;exitDx=0;exitDy=0;" edge="1" parent="2iKNml_L3nzeAcv7N0c_-1">
          <mxGeometry width="50" height="50" relative="1" as="geometry">
            <mxPoint x="180" y="374.71" as="sourcePoint" />
            <mxPoint x="300" y="374.71" as="targetPoint" />
          </mxGeometry>
        </mxCell>
        <mxCell id="ZxGLjuITJ4ZJ01TFVfL6-16" value="" style="endArrow=classic;html=1;fillColor=#d5e8d4;strokeColor=#82b366;entryX=0;entryY=0.25;entryDx=0;entryDy=0;exitX=1;exitY=0.25;exitDx=0;exitDy=0;" edge="1" parent="2iKNml_L3nzeAcv7N0c_-1">
          <mxGeometry width="50" height="50" relative="1" as="geometry">
            <mxPoint x="340" y="375.00000000000006" as="sourcePoint" />
            <mxPoint x="460" y="375.00000000000006" as="targetPoint" />
          </mxGeometry>
        </mxCell>
        <mxCell id="ZxGLjuITJ4ZJ01TFVfL6-17" value="" style="endArrow=classic;html=1;fillColor=#d5e8d4;strokeColor=#82b366;entryX=1;entryY=0.25;entryDx=0;entryDy=0;exitX=0;exitY=0.25;exitDx=0;exitDy=0;" edge="1" parent="2iKNml_L3nzeAcv7N0c_-1">
          <mxGeometry width="50" height="50" relative="1" as="geometry">
            <mxPoint x="300" y="268.71000000000004" as="sourcePoint" />
            <mxPoint x="180" y="268.71000000000004" as="targetPoint" />
          </mxGeometry>
        </mxCell>
        <mxCell id="ZxGLjuITJ4ZJ01TFVfL6-18" value="" style="endArrow=classic;html=1;fillColor=#d5e8d4;strokeColor=#82b366;entryX=0.75;entryY=1;entryDx=0;entryDy=0;exitX=0.75;exitY=1;exitDx=0;exitDy=0;" edge="1" parent="2iKNml_L3nzeAcv7N0c_-1">
          <mxGeometry width="50" height="50" relative="1" as="geometry">
            <mxPoint x="170" y="280" as="sourcePoint" />
            <mxPoint x="170" y="370" as="targetPoint" />
          </mxGeometry>
        </mxCell>
        <mxCell id="ZxGLjuITJ4ZJ01TFVfL6-19" value="" style="endArrow=classic;html=1;fillColor=#d5e8d4;strokeColor=#82b366;exitX=0.25;exitY=0;exitDx=0;exitDy=0;entryX=0.25;entryY=1;entryDx=0;entryDy=0;" edge="1" parent="2iKNml_L3nzeAcv7N0c_-1">
          <mxGeometry width="50" height="50" relative="1" as="geometry">
            <mxPoint x="310" y="369" as="sourcePoint" />
            <mxPoint x="310" y="279" as="targetPoint" />
          </mxGeometry>
        </mxCell>
        <mxCell id="ZxGLjuITJ4ZJ01TFVfL6-20" value="e[28]" style="text;html=1;align=center;verticalAlign=middle;resizable=0;points=[];autosize=1;fillColor=#d5e8d4;strokeColor=#82b366;" vertex="1" parent="2iKNml_L3nzeAcv7N0c_-1">
          <mxGeometry x="220" y="279" width="40" height="20" as="geometry" />
        </mxCell>
        <mxCell id="ZxGLjuITJ4ZJ01TFVfL6-21" value="e[17]" style="text;html=1;align=center;verticalAlign=middle;resizable=0;points=[];autosize=1;fillColor=#d5e8d4;strokeColor=#82b366;" vertex="1" parent="2iKNml_L3nzeAcv7N0c_-1">
          <mxGeometry x="180" y="310" width="40" height="20" as="geometry" />
        </mxCell>
        <mxCell id="ZxGLjuITJ4ZJ01TFVfL6-22" value="e[19]" style="text;html=1;align=center;verticalAlign=middle;resizable=0;points=[];autosize=1;fillColor=#d5e8d4;strokeColor=#82b366;" vertex="1" parent="2iKNml_L3nzeAcv7N0c_-1">
          <mxGeometry x="220" y="350" width="40" height="20" as="geometry" />
        </mxCell>
        <mxCell id="ZxGLjuITJ4ZJ01TFVfL6-23" value="e[2]" style="text;html=1;align=center;verticalAlign=middle;resizable=0;points=[];autosize=1;fillColor=#d5e8d4;strokeColor=#82b366;" vertex="1" parent="2iKNml_L3nzeAcv7N0c_-1">
          <mxGeometry x="260" y="310" width="40" height="20" as="geometry" />
        </mxCell>
        <mxCell id="ZxGLjuITJ4ZJ01TFVfL6-24" value="" style="endArrow=classic;html=1;fillColor=#d5e8d4;strokeColor=#82b366;entryX=1;entryY=0.25;entryDx=0;entryDy=0;" edge="1" parent="2iKNml_L3nzeAcv7N0c_-1">
          <mxGeometry width="50" height="50" relative="1" as="geometry">
            <mxPoint x="460" y="268.71" as="sourcePoint" />
            <mxPoint x="341" y="268.71" as="targetPoint" />
          </mxGeometry>
        </mxCell>
        <mxCell id="ZxGLjuITJ4ZJ01TFVfL6-25" value="" style="endArrow=classic;html=1;fillColor=#d5e8d4;strokeColor=#82b366;exitX=0.75;exitY=1;exitDx=0;exitDy=0;entryX=0.75;entryY=0;entryDx=0;entryDy=0;" edge="1" parent="2iKNml_L3nzeAcv7N0c_-1">
          <mxGeometry width="50" height="50" relative="1" as="geometry">
            <mxPoint x="330" y="280" as="sourcePoint" />
            <mxPoint x="330" y="370" as="targetPoint" />
          </mxGeometry>
        </mxCell>
        <mxCell id="ZxGLjuITJ4ZJ01TFVfL6-26" value="" style="endArrow=classic;html=1;fillColor=#d5e8d4;strokeColor=#82b366;exitX=0.25;exitY=0;exitDx=0;exitDy=0;entryX=0.25;entryY=1;entryDx=0;entryDy=0;" edge="1" parent="2iKNml_L3nzeAcv7N0c_-1">
          <mxGeometry width="50" height="50" relative="1" as="geometry">
            <mxPoint x="470" y="369" as="sourcePoint" />
            <mxPoint x="470" y="279" as="targetPoint" />
          </mxGeometry>
        </mxCell>
        <mxCell id="ZxGLjuITJ4ZJ01TFVfL6-27" value="e[20]" style="text;html=1;align=center;verticalAlign=middle;resizable=0;points=[];autosize=1;fillColor=#d5e8d4;strokeColor=#82b366;" vertex="1" parent="2iKNml_L3nzeAcv7N0c_-1">
          <mxGeometry x="374" y="271" width="40" height="20" as="geometry" />
        </mxCell>
        <mxCell id="ZxGLjuITJ4ZJ01TFVfL6-28" value="e[23]" style="text;html=1;align=center;verticalAlign=middle;resizable=0;points=[];autosize=1;fillColor=#d5e8d4;strokeColor=#82b366;" vertex="1" parent="2iKNml_L3nzeAcv7N0c_-1">
          <mxGeometry x="340" y="310" width="40" height="20" as="geometry" />
        </mxCell>
        <mxCell id="ZxGLjuITJ4ZJ01TFVfL6-29" value="e[15]" style="text;html=1;align=center;verticalAlign=middle;resizable=0;points=[];autosize=1;fillColor=#d5e8d4;strokeColor=#82b366;" vertex="1" parent="2iKNml_L3nzeAcv7N0c_-1">
          <mxGeometry x="374" y="350" width="40" height="20" as="geometry" />
        </mxCell>
        <mxCell id="ZxGLjuITJ4ZJ01TFVfL6-30" value="e[30]" style="text;html=1;align=center;verticalAlign=middle;resizable=0;points=[];autosize=1;fillColor=#d5e8d4;strokeColor=#82b366;" vertex="1" parent="2iKNml_L3nzeAcv7N0c_-1">
          <mxGeometry x="420" y="310" width="40" height="20" as="geometry" />
        </mxCell>
      </root>
    </mxGraphModel>
  </diagram>
</mxfile>
